<?xml version="1.0" standalone="no"?>
<!DOCTYPE svg PUBLIC "-//W3C//DTD SVG 20010904//EN"
 "http://www.w3.org/TR/2001/REC-SVG-20010904/DTD/svg10.dtd">
<svg version="1.0" xmlns="http://www.w3.org/2000/svg"
 width="900.000000pt" height="708.000000pt" viewBox="0 0 900.000000 708.000000"
 preserveAspectRatio="xMidYMid meet">
<metadata>
Created by potrace 1.10, written by Peter Selinger 2001-2011
</metadata>
<g transform="translate(0.000000,708.000000) scale(0.100000,-0.100000)"
fill="#000000" stroke="none">
<path d="M4170 6054 c-80 -7 -190 -19 -246 -27 -142 -21 -408 -81 -474 -109
-31 -12 -197 -67 -312 -102 -47 -15 -103 -36 -125 -48 -21 -11 -101 -53 -178
-93 -348 -179 -586 -350 -819 -589 -222 -229 -422 -524 -540 -801 -7 -16 -18
-41 -24 -55 -21 -46 -70 -196 -95 -290 -31 -116 -40 -157 -47 -210 -4 -30 -13
-82 -20 -115 -9 -40 -14 -152 -14 -340 -1 -282 6 -360 46 -510 6 -22 14 -58
18 -80 5 -22 13 -56 20 -75 7 -19 18 -51 25 -70 48 -135 109 -265 159 -339 20
-29 36 -56 36 -60 0 -3 16 -24 35 -46 19 -21 41 -52 49 -68 23 -50 212 -232
296 -287 12 -8 28 -20 34 -25 78 -72 408 -248 581 -310 28 -10 54 -22 59 -27
6 -4 19 -8 30 -8 12 -1 39 -9 61 -20 22 -11 52 -19 67 -20 15 0 42 -6 60 -14
50 -22 184 -54 373 -90 44 -8 94 -18 110 -21 17 -4 64 -11 105 -16 41 -5 109
-14 150 -20 88 -13 222 -24 490 -39 237 -14 942 -8 1095 9 238 26 304 33 395
46 196 27 246 35 275 44 16 5 52 12 80 15 27 3 63 11 80 16 16 6 66 19 110 30
131 32 199 50 220 60 11 5 52 19 90 31 39 12 75 25 80 29 6 4 23 10 40 14 27
7 238 103 275 126 8 5 33 18 55 29 37 19 227 139 250 158 129 107 285 260 285
281 0 5 11 20 25 33 13 13 25 28 25 33 0 4 13 25 29 45 15 20 41 59 56 86 67
122 88 162 96 185 4 14 17 50 29 80 37 97 58 163 75 240 9 41 23 102 31 135
27 119 38 374 25 585 -7 107 -19 221 -27 253 -8 32 -14 70 -14 84 0 50 -83
343 -138 488 -17 44 -135 288 -155 320 -6 10 -23 37 -37 60 -13 22 -30 49 -37
60 -7 11 -15 27 -20 35 -4 8 -45 67 -92 130 -83 110 -319 358 -426 446 -94 76
-232 176 -265 191 -8 4 -33 19 -54 35 -21 15 -42 28 -47 28 -4 0 -40 19 -81
43 -40 23 -89 50 -108 59 -134 64 -216 100 -276 119 -38 11 -85 27 -104 35
-33 12 -174 57 -285 89 -48 14 -222 58 -333 85 -242 57 -800 84 -1132 54z
m690 -169 c170 -16 314 -38 410 -61 30 -8 63 -14 74 -14 10 0 42 -7 70 -15 28
-8 97 -26 153 -41 117 -30 134 -43 112 -82 -19 -33 -66 -35 -98 -3 -25 25 -37
26 -59 5 -14 -15 -48 -16 -344 -9 -296 7 -328 6 -328 -9 0 -8 10 -18 23 -20
12 -3 150 -10 307 -16 357 -15 434 -22 487 -46 35 -16 41 -23 36 -41 -3 -14
-1 -23 6 -23 6 0 11 9 11 20 0 12 7 20 18 20 43 -1 43 3 45 -421 l2 -404 25 0
25 0 3 384 c2 293 5 387 15 393 25 16 57 8 67 -16 5 -14 8 -244 6 -545 -3
-581 2 -536 -74 -583 -18 -11 -48 -34 -65 -49 -17 -16 -37 -29 -44 -29 -21 0
-53 -61 -43 -80 14 -27 115 -100 137 -100 11 0 31 11 44 25 13 14 38 39 54 56
17 17 59 55 95 83 36 29 72 61 80 71 13 15 15 88 16 508 1 358 4 491 13 496
16 10 142 4 154 -8 16 -16 -1 -41 -28 -41 -30 0 -43 -25 -27 -51 9 -14 12
-168 12 -564 l0 -545 -37 -19 c-49 -24 -69 -48 -76 -89 -14 -69 64 -104 186
-84 37 7 92 12 121 12 86 0 86 0 86 219 0 205 -1 203 63 241 73 43 77 51 77
172 0 80 4 117 16 139 8 17 14 32 12 33 -2 2 -11 7 -21 13 -17 9 -16 11 8 27
24 16 31 16 52 5 22 -12 27 -11 39 6 8 11 13 29 10 40 -3 11 -6 55 -6 98 0 70
-3 81 -25 103 -40 40 -48 24 -40 -85 8 -109 4 -118 -53 -119 -36 -1 -53 21
-33 41 15 15 15 238 -1 272 -6 14 -19 25 -30 25 -17 0 -18 -11 -18 -142 0
-139 -1 -143 -24 -163 -37 -30 -38 -58 -1 -65 21 -4 31 -12 33 -28 4 -29 -32
-31 -50 -2 -18 28 -28 25 -28 -7 0 -33 26 -63 56 -63 26 0 32 -16 29 -75 -1
-22 -2 -63 -3 -92 -2 -52 -2 -53 -57 -88 -32 -20 -60 -47 -66 -62 -5 -14 -9
-101 -9 -192 0 -91 1 -172 0 -179 0 -9 -13 -12 -42 -10 -39 3 -43 6 -51 38 -5
19 -17 44 -28 56 -18 19 -19 42 -19 568 l0 548 30 28 c35 33 37 56 9 104 -24
41 -31 43 -124 45 -38 0 -91 3 -117 7 -39 5 -47 3 -51 -13 -3 -10 -6 -240 -6
-511 -1 -344 -4 -498 -12 -510 -6 -9 -45 -44 -87 -77 -41 -33 -84 -72 -95 -87
-24 -33 -47 -35 -71 -9 -16 17 -15 20 9 50 15 17 31 31 37 31 15 0 127 89 138
110 6 12 10 220 10 573 l0 554 -23 21 c-14 14 -47 27 -83 33 -113 21 -149 35
-152 58 -5 35 23 70 50 64 13 -3 28 -9 33 -13 6 -5 26 -13 45 -18 151 -45 294
-107 455 -197 33 -18 75 -41 94 -51 34 -18 229 -152 284 -195 130 -103 252
-223 366 -359 133 -160 151 -184 221 -302 33 -56 65 -110 70 -118 11 -18 75
-150 97 -200 8 -19 19 -44 24 -55 13 -31 74 -224 89 -280 65 -259 82 -417 77
-695 -3 -206 -7 -245 -26 -315 -22 -78 -38 -138 -62 -240 -6 -27 -15 -54 -18
-60 -4 -5 -16 -32 -26 -60 -46 -129 -79 -187 -191 -335 -67 -90 -207 -232
-263 -268 -24 -15 -88 -61 -136 -97 -10 -8 -23 -15 -29 -15 -5 0 -23 -10 -40
-23 -17 -12 -53 -33 -81 -46 -27 -14 -67 -35 -87 -48 -21 -13 -42 -23 -48 -23
-5 0 -39 -14 -73 -30 -35 -16 -68 -30 -73 -30 -5 0 -21 -6 -36 -14 -15 -8 -42
-17 -60 -21 -18 -4 -37 -10 -43 -14 -5 -4 -37 -15 -70 -25 -33 -10 -73 -23
-90 -28 -29 -10 -53 -16 -210 -53 -155 -37 -332 -69 -470 -85 -49 -6 -97 -13
-105 -17 -26 -10 -336 -33 -590 -43 -436 -19 -922 3 -1275 55 -55 9 -131 20
-168 25 -38 5 -85 14 -105 19 -20 5 -75 17 -122 26 -47 10 -105 23 -130 30
-25 8 -81 23 -125 35 -44 12 -105 31 -135 42 -30 11 -68 23 -85 28 -70 19
-236 89 -325 137 -229 123 -395 255 -541 429 -201 240 -302 492 -355 883 -37
277 7 693 103 966 13 39 28 84 32 100 10 36 92 217 135 295 273 502 754 939
1296 1177 41 18 89 39 105 47 96 45 382 142 530 180 369 94 819 128 1215 91z
m1448 -1827 c19 -19 14 -46 -12 -63 -22 -15 -28 -15 -61 -1 -42 18 -44 43 -5
63 32 16 63 16 78 1z"/>
<path d="M5215 5760 c-4 -6 -77 -10 -185 -10 -159 0 -210 -7 -182 -24 37 -23
672 -49 672 -28 0 6 -15 13 -32 16 -18 2 -69 9 -113 15 -43 6 -89 18 -102 26
-26 17 -49 19 -58 5z"/>
<path d="M4295 5725 c-30 -23 -31 -24 -165 -14 -74 5 -210 9 -301 10 -152 0
-170 -1 -214 -22 -26 -12 -50 -30 -52 -38 -2 -9 -34 -34 -69 -56 -36 -22 -88
-57 -117 -77 l-51 -38 -121 1 c-132 0 -175 -6 -175 -26 0 -21 23 -23 191 -22
l155 2 50 41 c27 22 69 54 94 71 25 17 61 45 80 63 19 18 44 35 55 40 20 8
561 3 603 -6 17 -3 22 -11 22 -37 0 -17 4 -37 8 -44 19 -29 117 -44 140 -21 7
7 12 41 12 84 0 46 4 76 12 80 6 4 56 6 110 5 54 -1 103 1 109 5 27 17 -26 24
-181 23 -159 0 -166 -1 -195 -24z m83 -68 c2 -37 -1 -49 -13 -54 -21 -7 -35
12 -35 49 0 39 10 59 29 56 11 -2 17 -16 19 -51z"/>
<path d="M3677 5620 c-7 -3 -22 -13 -32 -23 -11 -10 -51 -41 -90 -69 -38 -28
-84 -64 -100 -79 l-31 -29 -219 -2 -220 -3 0 -25 0 -25 225 -3 225 -2 85 71
c161 134 148 129 339 131 91 1 186 1 211 0 124 -6 197 24 113 47 -39 11 -483
20 -506 11z"/>
<path d="M4923 5584 c-14 -36 23 -44 196 -44 150 -1 206 -4 406 -26 66 -7 95
-25 95 -59 0 -28 22 -47 44 -39 19 7 20 16 3 72 -21 69 -44 78 -237 85 -91 4
-194 11 -230 17 -36 5 -111 10 -168 10 -86 0 -104 -3 -109 -16z"/>
<path d="M3979 5535 c-9 -9 -37 -30 -63 -48 -25 -18 -107 -78 -180 -135 l-134
-103 -253 12 c-140 6 -357 9 -482 7 -207 -4 -230 -7 -255 -25 -15 -10 -35 -22
-44 -26 -10 -3 -18 -13 -18 -21 0 -12 8 -13 38 -8 53 10 807 9 932 -2 l105 -8
57 43 c346 265 358 274 358 297 0 12 -4 22 -9 22 -5 0 -15 2 -23 5 -7 3 -20
-2 -29 -10z"/>
<path d="M4355 5395 c-130 -16 -170 -25 -289 -67 -234 -81 -462 -248 -585
-428 -48 -70 -56 -89 -82 -185 -24 -88 -23 -135 0 -207 24 -71 43 -99 112
-170 140 -143 322 -228 589 -277 348 -64 681 -52 1020 37 20 5 45 14 57 20 12
7 29 12 38 12 31 0 219 101 290 155 170 129 211 191 247 371 9 43 8 62 -6 105
-46 141 -121 249 -246 351 -54 45 -176 128 -187 128 -3 0 -33 13 -67 29 -71
34 -195 78 -281 98 -143 35 -445 49 -610 28z m435 -205 c62 -10 106 -21 245
-57 109 -29 264 -115 340 -189 100 -96 135 -166 135 -267 0 -151 -94 -260
-314 -363 -41 -19 -81 -34 -89 -34 -9 0 -19 -4 -22 -10 -3 -5 -15 -10 -25 -10
-11 0 -39 -6 -62 -14 -24 -8 -101 -22 -173 -31 -196 -25 -612 -9 -734 29 -25
7 -72 22 -105 31 -62 19 -135 54 -201 96 -49 32 -135 123 -135 143 0 8 -5 16
-12 18 -7 3 -14 32 -16 73 -4 64 -2 73 33 141 21 40 51 87 66 106 16 18 29 36
29 39 0 3 30 30 68 60 37 30 75 62 86 71 20 18 150 83 231 116 45 18 217 55
305 66 55 7 279 -2 350 -14z"/>
<path d="M4256 4992 c-15 -37 -26 -74 -24 -81 2 -10 -33 -13 -167 -14 -168 -2
-170 -2 -173 -24 -3 -23 -1 -23 110 -25 62 -2 169 -3 238 -3 l125 0 0 -25 c0
-24 -2 -25 -70 -25 l-70 0 -8 -52 c-8 -51 -9 -51 -40 -47 -18 2 -114 5 -214 7
-217 5 -213 6 -220 -100 -4 -66 -3 -69 29 -104 39 -42 140 -119 187 -143 46
-24 277 -37 721 -39 l355 -2 147 73 c131 65 148 76 157 105 16 50 18 376 2
414 -16 38 -19 39 -211 53 -79 6 -148 14 -152 16 -4 3 -8 18 -8 34 0 19 -7 33
-19 40 -13 6 -139 10 -344 10 l-324 0 -27 -68z m647 1 c2 -5 2 -76 -1 -160 -4
-129 -7 -152 -21 -155 -9 -1 -112 -1 -229 2 -171 4 -214 8 -222 20 -9 15 -3
63 11 91 5 9 4 20 -3 27 -5 5 -7 15 -4 21 12 19 34 12 56 -19 23 -33 54 -39
64 -13 4 9 4 37 0 61 l-7 45 -118 -6 c-89 -5 -120 -4 -126 6 -7 12 -5 65 4 80
2 4 136 7 298 7 162 0 296 -3 298 -7z m353 -91 c28 -18 31 -50 23 -204 -4 -86
-10 -165 -13 -175 -6 -19 -23 -29 -136 -82 -133 -61 -130 -61 -318 -61 -96 0
-309 5 -471 11 -329 12 -313 9 -446 93 -71 45 -94 76 -95 128 l0 26 203 4
c181 3 204 1 223 -14 18 -16 50 -18 360 -18 l340 0 22 30 c20 26 22 41 22 150
l0 120 138 0 c75 0 142 -4 148 -8z m-908 -167 c18 -5 22 -13 20 -33 -2 -22 -9
-28 -36 -30 -37 -4 -62 12 -62 37 0 23 21 42 40 37 8 -3 25 -7 38 -11z"/>
<path d="M2530 5113 c-59 -10 -91 -25 -88 -41 3 -16 39 -17 428 -13 379 4 427
2 438 -12 10 -11 11 -21 3 -35 -10 -19 -23 -19 -475 -14 l-464 5 -46 -33 c-25
-18 -46 -37 -46 -42 0 -13 51 -81 70 -93 8 -5 26 -12 40 -15 34 -7 36 -39 16
-210 -16 -134 -28 -251 -47 -450 -11 -124 -12 -125 -143 -207 -50 -30 -94 -61
-98 -67 -4 -6 -8 -30 -8 -53 0 -45 -17 -63 -59 -63 -31 0 -64 -49 -57 -85 8
-44 70 -95 116 -95 55 0 101 43 107 102 5 41 2 50 -21 71 -35 33 -34 69 5 101
17 14 34 26 38 26 5 0 42 22 83 49 48 32 79 60 86 78 12 31 28 156 42 333 5
63 14 149 20 190 5 41 13 120 17 175 l8 100 30 3 c41 5 53 17 69 71 l13 46 99
0 c96 0 99 -1 102 -23 6 -43 -15 -55 -85 -47 -44 5 -68 3 -78 -5 -22 -18 -18
-29 11 -41 l27 -10 -6 -97 c-4 -53 -11 -142 -16 -197 -25 -252 -30 -327 -33
-418 -1 -54 -5 -102 -8 -106 -3 -5 -21 -17 -41 -28 -86 -46 -179 -133 -179
-168 0 -17 22 -41 83 -92 45 -37 100 -84 122 -105 22 -20 53 -46 68 -58 25
-20 28 -27 22 -62 -12 -69 42 -127 117 -128 41 0 51 5 83 37 40 41 45 78 18
124 -20 34 -69 53 -116 44 -31 -6 -40 -1 -144 92 -61 54 -124 110 -142 125
-37 32 -39 43 -7 60 14 7 61 38 105 68 l80 55 5 60 c3 33 10 132 16 220 6 88
19 252 28 365 l17 205 48 5 c26 3 51 10 56 15 6 6 11 33 13 60 l3 50 83 3 c79
3 82 2 93 -22 20 -44 7 -56 -64 -56 -72 0 -100 -17 -77 -45 9 -11 11 -41 7
-108 -9 -142 -36 -459 -42 -483 -2 -11 1 -28 8 -36 12 -15 228 -204 422 -368
55 -46 102 -87 105 -91 14 -18 129 -106 153 -116 25 -12 27 -16 27 -76 l0 -63
-35 -13 c-50 -18 -85 -59 -85 -99 0 -29 5 -35 43 -52 27 -13 65 -20 105 -20
57 0 67 3 93 29 39 39 37 63 -11 115 -38 41 -40 47 -40 104 0 100 -42 95 586
81 296 -6 558 -9 582 -6 38 4 44 2 52 -18 12 -33 58 -65 92 -65 33 0 63 13 96
43 33 30 31 108 -3 149 l-25 30 20 25 c25 32 26 74 1 104 l-19 24 -589 8
c-751 9 -757 10 -821 50 -44 29 -162 135 -349 314 l-65 63 7 97 c3 54 11 116
16 138 6 22 16 83 24 135 29 191 33 202 78 241 35 30 41 42 41 74 0 30 -7 43
-32 66 l-32 29 -383 -1 c-210 -1 -393 -4 -407 -6z m-26 -173 c34 -12 34 -47 2
-61 -15 -7 -46 -9 -80 -5 -44 6 -56 12 -62 28 -4 15 -1 26 12 35 21 15 92 17
128 3z m719 -25 c-1 -11 -11 -74 -23 -140 -20 -115 -43 -273 -57 -398 l-6 -57
84 -81 c46 -45 126 -115 179 -157 52 -41 118 -99 147 -128 37 -38 64 -56 95
-63 24 -6 57 -15 73 -20 17 -5 314 -13 662 -17 677 -7 659 -6 632 -55 -10 -19
-18 -20 -187 -13 -299 11 -1115 10 -1119 -1 -2 -6 2 -18 9 -27 12 -15 73 -17
591 -21 318 -2 580 -6 582 -9 3 -3 0 -19 -6 -37 -10 -28 -14 -31 -43 -27 -54
9 -357 16 -768 18 -374 2 -398 2 -417 -16 -11 -10 -26 -16 -33 -13 -13 5 -125
97 -228 187 -30 26 -77 67 -105 90 -27 23 -88 77 -134 119 -46 42 -88 79 -95
83 -6 3 -31 25 -55 47 l-45 42 3 87 c1 48 6 128 12 177 5 50 12 131 15 180 8
135 8 135 52 135 58 0 77 19 78 79 1 28 2 53 3 57 0 3 25 4 54 2 45 -3 52 -6
50 -23z m-1092 -1195 c40 -22 6 -80 -38 -63 -38 14 -44 49 -10 63 29 11 26 11
48 0z m2873 -31 c32 -25 33 -49 2 -78 -19 -18 -28 -21 -44 -12 -25 14 -34 36
-25 69 11 46 29 51 67 21z m-2162 -206 c33 -30 16 -73 -29 -73 -21 0 -43 25
-43 49 0 13 29 41 42 41 6 0 20 -7 30 -17z m813 -103 c0 -23 -4 -25 -48 -28
-49 -3 -66 10 -53 44 4 11 18 14 53 12 44 -3 48 -5 48 -28z"/>
<path d="M6850 4866 c0 -9 10 -27 23 -39 22 -22 22 -22 19 -320 l-3 -297 -29
-15 c-34 -18 -45 -50 -36 -100 5 -27 17 -41 47 -60 68 -43 94 -43 134 -1 20
22 35 48 35 62 0 24 26 58 50 66 10 3 13 56 13 237 0 221 -2 235 -23 282 -13
26 -27 46 -32 43 -4 -3 -8 -117 -8 -254 0 -269 -2 -280 -55 -280 l-23 0 -4
308 c-3 252 -1 310 10 324 19 23 8 48 -20 48 -13 0 -40 3 -60 6 -31 6 -38 4
-38 -10z m126 -733 c5 -20 2 -31 -16 -45 -21 -17 -23 -17 -51 3 -16 11 -29 24
-29 29 0 18 33 40 61 40 23 0 30 -5 35 -27z"/>
<path d="M2747 3733 c-15 -15 -5 -62 18 -87 22 -23 35 -27 107 -33 93 -7 114
-15 178 -72 52 -47 79 -59 91 -40 20 32 15 39 -91 124 -36 30 -73 50 -88 51
-15 1 -51 2 -79 3 -45 1 -57 5 -80 31 -26 29 -43 37 -56 23z"/>
<path d="M3200 2981 c-80 -25 -124 -68 -159 -159 -25 -64 -26 -112 -4 -178 41
-123 139 -187 258 -170 35 6 55 17 93 54 41 40 52 59 67 116 21 78 14 141 -27
222 -43 87 -147 139 -228 115z m-24 -195 c39 -39 43 -72 15 -107 -25 -32 -82
-31 -116 1 -19 17 -25 34 -25 63 0 81 66 103 126 43z"/>
<path d="M5209 2935 c-91 -59 -129 -183 -97 -313 16 -67 45 -108 107 -152 51
-36 143 -35 199 3 56 37 88 90 100 168 20 128 -17 231 -103 291 -55 37 -151
39 -206 3z m34 -135 c30 -24 44 -87 27 -119 -15 -28 -66 -28 -97 1 -33 31 -32
90 3 117 33 26 35 26 67 1z"/>
<path d="M3906 2428 c-34 -49 -3 -138 65 -187 36 -26 51 -31 101 -31 66 0 106
16 155 63 l33 31 21 -22 c81 -87 218 -104 291 -35 35 32 67 97 68 134 0 26
-27 59 -48 59 -20 0 -42 -31 -42 -59 0 -39 -31 -75 -77 -90 -51 -17 -92 1
-158 68 -27 28 -56 51 -63 51 -8 0 -38 -24 -67 -54 -56 -57 -88 -69 -141 -54
-41 11 -64 42 -64 85 0 57 -46 82 -74 41z"/>
<path d="M158 4069 c-43 -25 -4 -59 67 -59 45 0 56 4 65 21 18 32 -4 49 -64
49 -28 0 -59 -5 -68 -11z"/>
<path d="M465 4067 c-20 -15 -20 -15 0 -37 16 -17 28 -20 73 -18 59 3 88 26
65 49 -19 19 -115 23 -138 6z"/>
<path d="M8363 4073 c-16 -6 -17 -35 -1 -51 14 -14 77 -16 112 -2 29 11 35 44
10 54 -18 7 -103 7 -121 -1z"/>
<path d="M8662 4068 c-16 -16 -15 -23 4 -42 32 -33 144 -14 144 24 0 28 -123
43 -148 18z"/>
<path d="M163 3910 c-25 -10 -29 -30 -11 -48 18 -18 123 -15 138 4 11 12 11
18 -2 31 -19 18 -94 27 -125 13z"/>
<path d="M503 3913 c-41 -5 -60 -27 -43 -48 8 -10 31 -15 65 -15 66 0 85 7 85
30 0 25 -49 40 -107 33z"/>
<path d="M8361 3907 c-16 -16 -13 -44 5 -51 9 -3 35 -6 59 -6 24 0 50 3 59 6
17 7 22 39 7 49 -19 11 -119 13 -130 2z"/>
<path d="M8676 3907 c-10 -7 -17 -22 -14 -33 2 -15 13 -20 52 -22 28 -2 60 -1
73 3 28 7 31 40 4 55 -27 14 -94 13 -115 -3z"/>
<path d="M365 3263 c-11 -3 -30 -14 -43 -26 -52 -48 -51 -27 -53 -766 -1 -674
-1 -688 19 -727 26 -52 37 -60 107 -84 54 -19 60 -19 77 -3 10 9 18 21 18 28
0 21 -36 45 -67 45 -23 0 -39 9 -57 31 l-26 31 2 684 c3 670 3 683 23 699 11
8 32 18 48 21 21 5 27 12 27 34 0 36 -22 46 -75 33z"/>
<path d="M8523 3263 c-7 -2 -13 -17 -13 -33 0 -23 5 -30 29 -35 16 -3 37 -15
47 -27 18 -19 19 -52 19 -699 l0 -679 -26 -25 c-17 -18 -42 -28 -75 -33 -46
-7 -49 -9 -49 -37 0 -27 4 -30 34 -33 80 -8 145 31 176 104 20 49 26 1351 6
1409 -24 71 -92 111 -148 88z"/>
<path d="M726 2485 c-14 -21 -16 -64 -16 -316 0 -326 2 -340 69 -385 48 -32
136 -35 144 -4 7 27 -18 50 -54 50 -20 0 -40 10 -60 29 l-29 29 0 295 c0 163
-3 302 -6 311 -9 23 -29 20 -48 -9z"/>
<path d="M8169 2493 c-11 -13 -14 -75 -15 -297 -1 -155 -2 -291 -3 -304 -1
-27 -54 -62 -93 -62 -38 0 -58 -10 -58 -29 0 -28 22 -41 71 -41 38 0 56 6 90
33 65 49 67 64 68 387 1 243 -1 289 -15 308 -18 26 -27 27 -45 5z"/>
</g>
</svg>
